# xmcd
#
# Track frame offsets: 
#        150
#        21310
#        35712
#        51165
#        65572
#        85355
#        103637
#        115275
#        137380
#        149212
#
# Disc length: 2226 seconds
#
# Revision: 2
# Processed by: cddbd v1.5.2PL0 Copyright (c) Steve Scherf et al.
# Submitted via: ExactAudioCopy v0.99pb5
#
DISCID=9608b00a
DTITLE=Various Artist - Blues guitar Masters
DYEAR=1998
DGENRE=Blues
TTITLE0=Smokey Wilson - Thanks for making me a star
TTITLE1=Bobby Radcliff with Ronnie earl& brodcasters - Bonhead
TTITLE2=George thorogood - Just can't make it
TTITLE3=Lowel fulson - you're gonna miss me
TTITLE4=Robert Ward - White fox
TTITLE5=Byther Smith - I'm in a hole
TTITLE6=Anson Funderburg and the rockets - meanstreak
TTITLE7=Hubert Sumlin and Ronnie Earl - Healing fealing
TTITLE8=Hubert Sumlin and Ronnie Earl - Healing fealing
TTITLE9=Johhny Copeland - Blues ain't nothin'
EXTD=YEAR: 1998 ID3G: 0
EXTT0=
EXTT1=
EXTT2=
EXTT3=
EXTT4=
EXTT5=
EXTT6=
EXTT7=
EXTT8=
EXTT9=
PLAYORDER=
